#!OML:ASF H:\Dans Jumps\Project 1\Capture day 1\Session 1\subject.ASF
:FULLY-SPECIFIED
:DEGREES
235
root 0.474088 17.1429 -14.3661 9.15907 -1.54453 -2.05008
lowerback 2.93673 -0.128475 -0.0310561
upperback 3.71084 -0.203023 1.94187
thorax 2.1705 -0.130515 2.01384
lowerneck -15.0384 0.978513 -1.31137
upperneck 25.1925 1.92829 -0.742564
head 10.5618 0.663374 0.214914
rclavicle -2.28602e-015 -9.34288e-015
rhumerus -26.6236 -17.3423 -77.3255
rradius 24.0436
rwrist 32.6845
rhand -20.8665 -26.7714
rfingers 7.12502
rthumb 5.50322 -56.6799
lclavicle -2.28602e-015 -9.34288e-015
lhumerus -23.0638 0.571594 86.0496
lradius 18.5949
lwrist 6.40091
lhand -26.5969 -5.09772
lfingers 7.12502
lthumb -0.0307914 24.882
rfemur -26.0835 -1.86312 20.5502
rtibia 35.5184
rfoot -17.7989 -2.49843
rtoes 5.72911
lfemur -25.5515 9.95526 -18.6573
ltibia 35.1916
lfoot -16.7885 4.50288
ltoes -0.337341
236
root 0.472827 17.1203 -14.3886 9.28697 -1.50834 -2.07555
lowerback 3.14895 -0.133277 -0.0225944
upperback 3.78635 -0.208429 1.9518
thorax 2.12981 -0.133375 2.01997
lowerneck -15.0861 0.977688 -1.30094
upperneck 24.9232 1.93007 -0.778702
head 10.4729 0.663799 0.19987
rclavicle -4.96962e-016 1.41137e-014
rhumerus -26.7865 -17.377 -77.2208
rradius 23.9648
rwrist 32.7796
rhand -20.8547 -26.7841
rfingers 7.12502
rthumb 5.5146 -56.6923
lclavicle -4.96962e-016 1.41137e-014
lhumerus -23.2002 0.716786 85.9415
lradius 18.5208
lwrist 6.43216
lhand -26.6937 -5.19877
lfingers 7.12502
lthumb -0.124296 24.7809
rfemur -26.6081 -1.88634 20.5991
rtibia 36.0919
rfoot -17.9943 -2.56091
rtoes 5.65611
lfemur -26.1212 10.0501 -18.6788
ltibia 35.8015
lfoot -16.9922 4.49375
ltoes -0.526499
237
root 0.471509 17.0975 -14.4106 9.41997 -1.46573 -2.10008
lowerback 3.35911 -0.138963 -0.0154703
upperback 3.85887 -0.214985 1.96391
thorax 2.08732 -0.136849 2.02916
lowerneck -15.1372 0.974854 -1.29342
upperneck 24.6616 1.92997 -0.81512
head 10.3877 0.662975 0.185085
rclavicle 2.88238e-015 1.45113e-014
rhumerus -26.9662 -17.4142 -77.1082
rradius 23.8857
rwrist 32.8661
rhand -20.8294 -26.8159
rfingers 7.12502
rthumb 5.53907 -56.7235
lclavicle 2.88238e-015 1.45113e-014
lhumerus -23.3583 0.864641 85.8396
lradius 18.4603
lwrist 6.45084
lhand -26.7516 -5.19713
lfingers 7.12502
lthumb -0.180207 24.7825
rfemur -27.1352 -1.9167 20.6478
rtibia 36.6637
rfoot -18.1898 -2.62086
rtoes 5.59112
lfemur -26.6955 10.1375 -18.7024
ltibia 36.4078
lfoot -17.1925 4.48871
ltoes -0.720637
238
root 0.470243 17.0745 -14.4321 9.55837 -1.41537 -2.11955
lowerback 3.5656 -0.145962 -0.0117708
upperback 3.92794 -0.223284 1.97664
thorax 2.04348 -0.141263 2.04098
lowerneck -15.19 0.969823 -1.29107
upperneck 24.4077 1.92716 -0.847551
head 10.306 0.660835 0.172328
rclavicle -6.16232e-015 2.52457e-014
rhumerus -27.1641 -17.4686 -76.9811
rradius 23.799
rwrist 32.9742
rhand -20.7987 -26.8296
rfingers 7.12502
rthumb 5.56867 -56.7364
lclavicle -6.16232e-015 2.52457e-014
lhumerus -23.536 1.00575 85.7443
lradius 18.4001
lwrist 6.45427
lhand -26.8157 -5.19502
lfingers 7.12502
lthumb -0.242079 24.7846
rfemur -27.6662 -1.9578 20.6918
rtibia 37.2355
rfoot -18.3862 -2.67618
rtoes 5.52733
lfemur -27.2721 10.213 -18.7323
ltibia 37.0087
lfoot -17.3921 4.48637
ltoes -0.90064
239
root 0.469044 17.0513 -14.453 9.70087 -1.3556 -2.1304
lowerback 3.76925 -0.155512 -0.0129977
upperback 3.99317 -0.234984 1.98811
thorax 1.99749 -0.147447 2.05437
lowerneck -15.244 0.964356 -1.28885
upperneck 24.1615 1.92366 -0.879217
head 10.2276 0.658377 0.159855
rclavicle 5.66536e-015 -5.76476e-015
rhumerus -27.379 -17.5423 -76.8407
rradius 23.706
rwrist 33.1021
rhand -20.7705 -26.8174
rfingers 7.12502
rthumb 5.59593 -56.7235
lclavicle 5.66536e-015 -5.76476e-015
lhumerus -23.737 1.14006 85.6556
lradius 18.3367
lwrist 6.4398
lhand -26.9043 -5.19744
lfingers 7.12502
lthumb -0.327659 24.7821
rfemur -28.2004 -2.00909 20.7268
rtibia 37.8095
rfoot -18.5844 -2.72732
rtoes 5.47633
lfemur -27.8485 10.2726 -18.7713
ltibia 37.6032
lfoot -17.5897 4.48638
ltoes -1.05921
240
root 0.468002 17.0278 -14.4733 9.844 -1.28997 -2.13301
lowerback 3.97475 -0.166473 -0.017314
upperback 4.05492 -0.248493 1.99713
thorax 1.94702 -0.154533 2.0671
lowerneck -15.3046 0.958904 -1.28515
upperneck 23.9291 1.91993 -0.910255
head 10.1558 0.655849 0.147462
rclavicle -1.98785e-016 1.61016e-014
rhumerus -27.6135 -17.6303 -76.6886
rradius 23.6105
rwrist 33.2457
rhand -20.7329 -26.7995
rfingers 7.12502
rthumb 5.6322 -56.7047
lclavicle -1.98785e-016 1.61016e-014
lhumerus -23.9621 1.26591 85.5712
lradius 18.2737
lwrist 6.42701
lhand -26.9804 -5.16293
lfingers 7.12502
lthumb -0.401153 24.8164
rfemur -28.7335 -2.06726 20.7521
rtibia 38.3846
rfoot -18.785 -2.77248
rtoes 5.44406
lfemur -28.4194 10.3182 -18.8186
ltibia 38.1903
lfoot -17.7851 4.48779
ltoes -1.1887
241
root 0.467157 17.0041 -14.4929 9.98757 -1.22123 -2.13028
lowerback 4.18071 -0.177689 -0.0207815
upperback 4.11219 -0.262195 2.00356
thorax 1.89173 -0.161608 2.07678
lowerneck -15.3606 0.953356 -1.27766
upperneck 23.7042 1.91544 -0.942869
head 10.086 0.653078 0.133813
rclavicle -2.18663e-015 4.96962e-015
rhumerus -27.8724 -17.7299 -76.5253
rradius 23.5158
rwrist 33.3946
rhand -20.6998 -26.7644
rfingers 7.12502
rthumb 5.66423 -56.6687
lclavicle -2.18663e-015 4.96962e-015
lhumerus -24.2066 1.38552 85.4889
lradius 18.2015
lwrist 6.41371
lhand -27.0425 -5.10804
lfingers 7.12502
lthumb -0.461168 24.8712
rfemur -29.2648 -2.129 20.7709
rtibia 38.9597
rfoot -18.9869 -2.81369
rtoes 5.42184
lfemur -28.9838 10.3515 -18.8706
ltibia 38.7706
lfoot -17.979 4.49145
ltoes -1.29486
242
root 0.46649 16.9802 -14.512 10.1338 -1.15561 -2.12943
lowerback 4.38252 -0.187158 -0.0185491
upperback 4.16736 -0.273421 2.00939
thorax 1.83654 -0.167285 2.08264
lowerneck -15.4162 0.948459 -1.26461
upperneck 23.4833 1.91162 -0.980335
head 10.0179 0.650511 0.117672
rclavicle -2.38542e-015 1.25234e-014
rhumerus -28.1483 -17.8362 -76.3559
rradius 23.4267
rwrist 33.544
rhand -20.6544 -26.7405
rfingers 7.12502
rthumb 5.70802 -56.6436
lclavicle -2.38542e-015 1.25234e-014
lhumerus -24.4663 1.50351 85.4061
lradius 18.1233
lwrist 6.39581
lhand -27.0727 -5.02835
lfingers 7.12502
lthumb -0.490265 24.9508
rfemur -29.7959 -2.1887 20.7917
rtibia 39.531
rfoot -19.1859 -2.85754
rtoes 5.38254
lfemur -29.5448 10.3799 -18.9207
ltibia 39.3446
lfoot -18.1704 4.49889
ltoes -1.3805
243
root 0.465953 16.956 -14.5304 10.2788 -1.09356 -2.13173
lowerback 4.58523 -0.194394 -0.0110021
upperback 4.22016 -0.281456 2.01604
thorax 1.77835 -0.171223 2.08633
lowerneck -15.473 0.941924 -1.25145
upperneck 23.2675 1.90584 -1.01907
head 9.9521 0.646844 0.100886
rclavicle 1.09332e-014 1.39149e-015
rhumerus -28.442 -17.9464 -76.1791
rradius 23.3399
rwrist 33.6871
rhand -20.6047 -26.717
rfingers 7.12502
rthumb 5.75598 -56.6188
lclavicle 1.09332e-014 1.39149e-015
lhumerus -24.7403 1.61698 85.3266
lradius 18.0347
lwrist 6.38634
lhand -27.0986 -5.02748
lfingers 7.12502
lthumb -0.515349 24.9516
rfemur -30.3215 -2.24353 20.8157
rtibia 40.0966
rfoot -19.3836 -2.90422
rtoes 5.3347
lfemur -30.0988 10.4062 -18.967
ltibia 39.9134
lfoot -18.3591 4.51395
ltoes -1.47862
244
root 0.46554 16.932 -14.5479 10.4272 -1.03721 -2.13923
lowerback 4.77876 -0.198028 0.00225072
upperback 4.27468 -0.284636 2.02419
thorax 1.72693 -0.172661 2.08824
lowerneck -15.5205 0.931342 -1.24652
upperneck 23.0368 1.89408 -1.05027
head 9.87924 0.640817 0.0873071
rclavicle 5.36719e-015 -3.27995e-014
rhumerus -28.7388 -18.0732 -75.9958
rradius 23.2449
rwrist 33.831
rhand -20.5639 -26.7
rfingers 7.12502
rthumb 5.79544 -56.6008
lclavicle 5.36719e-015 -3.27995e-014
lhumerus -25.012 1.7222 85.25
lradius 17.9264
lwrist 6.36798
lhand -27.1442 -5.15298
lfingers 7.12502
lthumb -0.559386 24.826
rfemur -30.8442 -2.29168 20.8453
rtibia 40.6543
rfoot -19.5797 -2.95512
rtoes 5.26965
lfemur -30.649 10.4316 -19.008
ltibia 40.477
lfoot -18.5477 4.53616
ltoes -1.57328
245
root 0.465167 16.9078 -14.5648 10.5754 -0.986921 -2.1512
lowerback 4.97089 -0.198212 0.0183038
upperback 4.32856 -0.283112 2.03513
thorax 1.67555 -0.171722 2.09132
lowerneck -15.567 0.917447 -1.24976
upperneck 22.8022 1.87858 -1.07706
head 9.80491 0.632934 0.0761883
rclavicle -1.88845e-015 -3.77691e-015
rhumerus -29.0468 -18.1952 -75.8081
rradius 23.1545
rwrist 33.9621
rhand -20.5179 -26.6983
rfingers 7.12502
rthumb 5.83979 -56.5978
lclavicle -1.88845e-015 -3.77691e-015
lhumerus -25.2945 1.83389 85.1765
lradius 17.8089
lwrist 6.33215
lhand -27.1861 -5.34595
lfingers 7.12502
lthumb -0.599843 24.633
rfemur -31.3601 -2.33039 20.8787
rtibia 41.205
rfoot -19.7778 -3.00684
rtoes 5.21993
lfemur -31.1931 10.4591 -19.0439
ltibia 41.036
lfoot -18.7366 4.56431
ltoes -1.67421
246
root 0.464842 16.8836 -14.5811 10.721 -0.942432 -2.16674
lowerback 5.16612 -0.19564 0.0343167
upperback 4.38142 -0.277834 2.05033
thorax 1.62135 -0.168957 2.0987
lowerneck -15.6159 0.901769 -1.25881
upperneck 22.5674 1.86207 -1.10364
head 9.73116 0.624118 0.0660449
rclavicle 6.55989e-015 -1.11319e-014
rhumerus -29.3644 -18.3201 -75.6096
rradius 23.0635
rwrist 34.1005
rhand -20.4643 -26.6952
rfingers 7.12502
rthumb 5.89153 -56.5933
lclavicle 6.55989e-015 -1.11319e-014
lhumerus -25.592 1.95233 85.1075
lradius 17.6885
lwrist 6.2822
lhand -27.2173 -5.58132
lfingers 7.12502
lthumb -0.629967 24.3975
rfemur -31.8672 -2.35865 20.9147
rtibia 41.7496
rfoot -19.9803 -3.06002
rtoes 5.17655
lfemur -31.7275 10.4858 -19.0748
ltibia 41.5901
lfoot -18.927 4.60096
ltoes -1.77969
247
root 0.464493 16.8592 -14.5968 10.8652 -0.906815 -2.18329
lowerback 5.36295 -0.189724 0.0465312
upperback 4.43141 -0.268127 2.06813
thorax 1.56326 -0.164082 2.11073
lowerneck -15.6617 0.886689 -1.26899
upperneck 22.331 1.84696 -1.13197
head 9.65648 0.615718 0.0556893
rclavicle -4.96962e-015 9.74045e-015
rhumerus -29.6953 -18.4433 -75.4025
rradius 22.9763
rwrist 34.24
rhand -20.3998 -26.69
rfingers 7.12502
rthumb 5.95385 -56.5863
lclavicle -4.96962e-015 9.74045e-015
lhumerus -25.9085 2.07077 85.0427
lradius 17.5624
lwrist 6.20659
lhand -27.2706 -5.86413
lfingers 7.12502
lthumb -0.681425 24.1145
rfemur -32.3685 -2.37382 20.9502
rtibia 42.2908
rfoot -20.1895 -3.11526
rtoes 5.14541
lfemur -32.2536 10.5133 -19.1037
ltibia 42.1406
lfoot -19.1197 4.64937
ltoes -1.89559
